<svg width="54" height="54" viewBox="0 0 54 54" fill="none" xmlns="http://www.w3.org/2000/svg">
<g clip-path="url(#clip0_2_301)">
<path d="M31.456 21.0326L26.9985 16.5747C26.6469 16.2231 26.0768 16.2231 25.7251 16.5747C25.3735 16.9263 25.3735 17.4965 25.7251 17.8482L30.1826 22.3061C30.5342 22.6577 31.1044 22.6577 31.456 22.3061C31.8077 21.9544 31.8077 21.3842 31.456 21.0326Z" fill="#FF6682"/>
<path d="M35.2767 29.9474L30.8193 25.4895C30.4677 25.1379 29.8975 25.1379 29.5458 25.4895C29.1942 25.8411 29.1942 26.4112 29.5458 26.763L34.0033 31.2208C34.3549 31.5725 34.925 31.5725 35.2768 31.2208C35.6285 30.8692 35.6283 30.299 35.2767 29.9474Z" fill="#FF6682"/>
<path d="M25.7254 26.7638L22.5414 23.5794C22.1898 23.2278 21.6196 23.2278 21.2679 23.5794C20.9163 23.931 20.9163 24.5012 21.2679 24.8529L24.4519 28.0373C24.8036 28.3889 25.3738 28.3889 25.7254 28.0373C26.077 27.6857 26.077 27.1155 25.7254 26.7638Z" fill="#FF6682"/>
<path d="M19.9938 38.8622L18.7204 37.5887C18.3687 37.2371 17.7985 37.2371 17.4469 37.5887C17.0953 37.9404 17.0953 38.5106 17.4469 38.8622L18.7204 40.1357C19.072 40.4873 19.6422 40.4873 19.9938 40.1357C20.3454 39.784 20.3454 39.2138 19.9938 38.8622Z" fill="#FF6682"/>
<path d="M21.9045 33.1309L18.7205 29.9474C18.3688 29.5958 17.7986 29.5958 17.447 29.9474C17.0954 30.299 17.0954 30.8692 17.447 31.2209L20.631 34.4045C20.9827 34.7561 21.5529 34.7561 21.9045 34.4045C22.2561 34.0527 22.2561 33.4825 21.9045 33.1309Z" fill="#FF6682"/>
<path d="M15.0176 41.5269L12.4704 38.9801C12.1188 38.6285 11.5486 38.6285 11.197 38.9801C10.8453 39.3318 10.8453 39.9019 11.197 40.2536L13.7442 42.8004C14.0958 43.152 14.666 43.152 15.0176 42.8004C15.3693 42.4487 15.3693 41.8786 15.0176 41.5269Z" fill="#FF6682"/>
<path d="M53.8643 19.4926C53.7896 19.3717 53.6874 19.2701 53.5659 19.1962C53.3308 19.0537 48.1653 15.9387 44.547 15.5124C45.9544 12.9421 47.0247 10.2011 47.7318 7.35718C47.8511 6.87426 47.5565 6.38607 47.0737 6.26672C46.9317 6.23157 46.7833 6.23157 46.6413 6.26672C43.7972 6.97515 41.0566 8.04831 38.4876 9.45938C38.0685 5.84765 34.9457 0.668125 34.8027 0.432682C34.6399 0.164947 34.3496 0.00105532 34.0362 0H34.0331C33.7209 0 33.4309 0.161781 33.2668 0.427406C33.1097 0.682477 29.4219 6.7013 29.3946 10.2929C29.3946 10.5863 29.41 10.8747 29.4312 11.1602C28.941 11.1353 28.4496 11.1464 27.9611 11.1934C24.7672 11.5333 21.8999 13.3035 20.1649 16.0065L0.686758 47.9626C-0.521903 49.7113 -0.0840499 52.1087 1.66472 53.3173C2.30341 53.7588 3.0606 53.9966 3.83689 53.9999C4.61731 53.9931 5.3783 53.756 6.02447 53.3184L38.016 33.8186C40.7074 32.0837 42.4684 29.2234 42.8059 26.0391C42.8526 25.55 42.8632 25.058 42.838 24.5673C43.1252 24.5886 43.4155 24.6039 43.7127 24.6039C47.2981 24.5767 53.3161 20.8892 53.5712 20.7317C53.9943 20.4706 54.1255 19.9158 53.8643 19.4926ZM45.563 8.43551C44.8612 10.7581 43.5622 14.3084 42.0883 15.7823C41.3375 16.5441 40.4464 17.1536 39.4644 17.5774L36.4293 14.542C36.8563 13.5407 37.4767 12.6336 38.2549 11.8724C39.699 10.4284 43.2422 9.13645 45.563 8.43551ZM34.0262 2.70954C35.1668 4.82198 36.752 8.21125 36.7366 10.2322C36.7328 10.4636 36.7163 10.6857 36.6998 10.9081C36.0421 11.6042 35.4851 12.3892 35.0451 13.2399C33.9386 12.3521 32.6471 11.7238 31.2657 11.4012C31.2212 11.0357 31.1978 10.668 31.1957 10.2998C31.2111 8.26402 32.8542 4.83781 34.0262 2.70954ZM41.0141 25.8528C40.7349 28.4882 39.2798 30.8565 37.055 32.2963L5.06328 51.7961C4.15423 52.4668 2.87349 52.2738 2.20273 51.3648C1.66979 50.6426 1.6699 49.6574 2.20294 48.9353L2.21792 48.9116L21.6881 16.9678C23.1277 14.7312 25.5023 13.2669 28.1471 12.9848C28.4326 12.955 28.7193 12.94 29.0063 12.9399C31.0759 12.9258 33.0658 13.7372 34.5354 15.1947L34.6887 15.3481L34.6901 15.3493L38.8038 19.4634C40.4691 21.1493 41.2817 23.4983 41.0141 25.8528ZM43.7056 22.8029C43.3347 22.8008 42.9642 22.7773 42.596 22.7326C42.2734 21.3521 41.6458 20.0615 40.7593 18.9552C41.6072 18.5121 42.3904 17.955 43.0868 17.2993C43.3092 17.2826 43.5324 17.2662 43.7574 17.2623C45.8206 17.2544 49.1765 18.8321 51.2889 19.9727C49.1616 21.1452 45.7371 22.7879 43.7056 22.8029Z" fill="#FF6682"/>
</g>
<defs>
<clipPath id="clip0_2_301">
<rect width="54" height="54" fill="white"/>
</clipPath>
</defs>
</svg>
