<svg width="53" height="54" viewBox="0 0 53 54" fill="none" xmlns="http://www.w3.org/2000/svg">
<g clip-path="url(#clip0_2_326)">
<path d="M26.0583 30.1505C18.162 30.1933 11.7197 36.6047 11.4922 44.6469C11.4859 44.9346 11.6151 45.208 11.8398 45.3825C20.1807 51.8121 31.6225 52.0872 40.2517 46.0654C40.4907 45.8974 40.6333 45.6204 40.6331 45.3245V45.0002C40.6326 36.7991 34.1075 30.1509 26.0583 30.1505ZM26.5 48.6001C21.7468 48.6238 17.1116 47.0921 13.2769 44.2303C13.7101 37.3519 19.2935 31.9876 26.0583 31.9505C33.0734 31.9507 38.7832 37.7003 38.8656 44.8473C35.1956 47.31 30.8944 48.6153 26.5 48.6001Z" fill="#FFAF40"/>
<path d="M50.7394 7.20086C51.9874 7.19928 52.9987 6.16887 53.0003 4.89725V4.05088C53 3.76781 52.8694 3.5014 52.6475 3.33107C45.4273 -2.18632 35.1844 -0.69555 29.7692 6.66077C27.6477 9.54276 26.5008 13.0482 26.5008 16.6507C26.5008 17.106 26.5189 17.5569 26.5534 18.0007H7.0677C5.11636 18.0007 3.53446 19.6124 3.53446 21.6006C3.53446 23.5887 5.11636 25.2005 7.0677 25.2005H9.37088C8.44216 26.8429 7.95254 28.7048 7.95098 30.6004V38.5394C6.78118 36.7347 5.89416 34.7555 5.32173 32.6728C4.98366 31.4994 3.92202 30.6973 2.72178 30.7085C1.24463 30.6858 0.0278296 31.885 0.00112305 33.39C8.7911e-05 33.624 0.0319702 33.8569 0.0960452 34.0816C1.49234 39.1487 4.32997 43.6809 8.25117 47.1068C9.38693 48.123 10.6085 49.035 11.9018 49.8323C12.7035 50.3355 13.5305 50.7957 14.3792 51.2113C22.0487 54.9298 30.9546 54.9295 38.6239 51.2103C39.1518 50.9511 39.6694 50.6733 40.1818 50.3841C41.4634 49.6532 42.6843 48.8169 43.8324 47.8837C48.2196 44.3832 51.3978 39.5491 52.9054 34.0833C53.1218 33.2981 52.9616 32.4549 52.4732 31.8087C51.9496 31.1144 51.1389 30.7076 50.2795 30.7084C49.5519 30.7041 48.8529 30.9968 48.3387 31.5213C48.0265 31.8406 47.7998 32.2361 47.6805 32.6701C46.9622 35.2523 45.7701 37.6725 44.1671 39.8024V30.6004C44.1671 30.3634 44.1575 30.1277 44.1417 29.8939C44.1704 29.7695 44.1725 29.6403 44.148 29.5149L44.0548 29.064L44.0547 29.0631L44.054 29.0552L44.0519 29.0445C44.0497 29.0278 44.0476 29.011 44.0445 28.9945L43.9257 28.3836C43.896 28.2389 43.8808 28.1021 43.8435 27.9539L43.8431 27.9526L43.8409 27.9399L41.8991 18.0751C41.8818 17.9913 41.8723 17.906 41.8706 17.8202C41.8698 17.226 42.2689 16.7088 42.8359 16.5696C43.374 16.4338 43.9367 16.667 44.229 17.147L45.3374 19.0436C45.9512 20.0685 47.0428 20.6956 48.2211 20.7003C50.0748 20.6978 51.5754 19.1647 51.573 17.276C51.5726 17.0521 51.5508 16.8287 51.5076 16.609L49.8739 8.27367C49.8196 8.01074 49.886 7.73706 50.0542 7.53013C50.2225 7.32131 50.474 7.20023 50.7394 7.20086ZM15.9009 19.8007H26.5008V25.2006C26.5005 25.6974 26.1051 26.1002 25.6175 26.1005H16.7843C16.2966 26.1002 15.9014 25.6974 15.9011 25.2006V19.8007H15.9009ZM48.142 8.62815L49.7757 16.9645C49.9468 17.8425 49.3868 18.6954 48.5251 18.8696C48.425 18.8899 48.3233 18.9002 48.2213 18.9006C47.6611 18.9023 47.141 18.6044 46.8515 18.1157L45.7439 16.2218C45.0487 15.0676 43.7021 14.5024 42.4107 14.8225C41.0548 15.1594 40.1014 16.3984 40.1041 17.8204C40.1063 18.0218 40.1268 18.2224 40.1654 18.4198L42.0994 28.2475L42.108 28.3003L42.2995 29.2846L42.3022 29.3017L42.3046 29.3267C42.369 29.748 42.4011 30.1738 42.4004 30.6003V42.2368C42.4006 42.7337 42.7961 43.1365 43.2839 43.1363C43.525 43.1362 43.7555 43.0357 43.922 42.8582C46.4912 40.1266 48.3656 36.796 49.3816 33.157C49.4187 33.0196 49.49 32.8943 49.5886 32.7931C50.0092 32.405 50.6588 32.4376 51.0399 32.8661C51.0486 32.8759 51.057 32.8858 51.0654 32.896C51.2184 33.094 51.27 33.3543 51.2043 33.5973C49.7964 38.6988 46.8284 43.2098 42.7317 46.4748C41.6598 47.3473 40.5197 48.1289 39.3227 48.8118C38.843 49.0825 38.3531 49.3444 37.858 49.5887C30.673 53.07 22.3314 53.0703 15.1462 49.5896C14.351 49.2001 13.5762 48.7688 12.8249 48.2976C11.616 47.5521 10.4737 46.6994 9.41156 45.7496C5.748 42.5498 3.09701 38.3158 1.79295 33.5822C1.77566 33.5196 1.76728 33.4548 1.7679 33.3898C1.79937 32.8813 2.22222 32.4907 2.72198 32.5083C3.12972 32.4955 3.49627 32.7599 3.61997 33.1561C4.50025 36.3447 6.04923 39.3009 8.15988 41.8202C8.4758 42.1994 9.03364 42.2458 9.40577 41.924C9.60338 41.7532 9.71745 41.5025 9.71776 41.2383V30.6005C9.71724 28.5112 10.4296 26.4868 11.7329 24.8736C11.7542 24.8393 11.773 24.8033 11.7893 24.7662C11.8235 24.715 11.8522 24.6603 11.875 24.6029C11.8937 24.5427 11.906 24.4806 11.9116 24.4176C11.922 24.3792 11.9297 24.3402 11.9347 24.3006C11.9347 24.2861 11.9273 24.2741 11.9266 24.2596C11.9016 24.0261 11.8008 23.8077 11.64 23.6393C11.6295 23.6294 11.625 23.6156 11.6138 23.6062C11.5804 23.5848 11.5455 23.5658 11.5095 23.5495C11.4098 23.4746 11.2908 23.4311 11.1671 23.4242C11.1292 23.4136 11.0905 23.4056 11.0514 23.4005H7.0677C6.09198 23.4005 5.30103 22.5946 5.30103 21.6005C5.30103 20.6063 6.09198 19.8005 7.0677 19.8005H14.1343V25.2004C14.1358 26.6908 15.3214 27.8987 16.7842 27.9003H25.6174C27.0802 27.8987 28.2658 26.6908 28.2673 25.2004V19.3833C28.3897 19.2042 28.4428 18.9853 28.4166 18.7687C28.316 18.0673 28.2661 17.3593 28.2673 16.6506C28.2675 8.44906 34.7934 1.80064 42.843 1.80085C45.847 1.80096 48.7775 2.74668 51.2336 4.50871V4.89715C51.2333 5.17516 51.0122 5.40044 50.7394 5.40075C49.2783 5.39864 48.0921 6.60371 48.09 8.09237C48.0898 8.27241 48.1072 8.45181 48.142 8.62815Z" fill="#FFAF40"/>
<path d="M45.934 8.10083C45.9337 8.10083 45.9333 8.10083 45.933 8.10083C45.4454 8.10051 45.0499 8.50298 45.0497 8.99973C45.0497 9.00004 45.0497 9.00046 45.0497 9.00078V9.90073C45.0497 10.3978 45.4451 10.8007 45.933 10.8007C46.4208 10.8007 46.8162 10.3978 46.8162 9.90073V9.00078C46.8166 8.50414 46.4216 8.10115 45.934 8.10083Z" fill="#FFAF40"/>
</g>
<defs>
<clipPath id="clip0_2_326">
<rect width="53" height="54" fill="white"/>
</clipPath>
</defs>
</svg>
