<svg width="54" height="54" viewBox="0 0 54 54" fill="none" xmlns="http://www.w3.org/2000/svg">
<g clip-path="url(#clip0_2_339)">
<path d="M51.3 0H2.7C1.20952 0.00158203 0.00158203 1.20952 0 2.7V51.3C0.00158203 52.7905 1.20952 53.9984 2.7 54H51.3C52.7905 53.9984 53.9984 52.7905 54 51.3V2.7C53.9984 1.20952 52.7905 0.00158203 51.3 0ZM52.2 51.3C52.1994 51.7969 51.7969 52.1995 51.3 52.2H2.7C2.20314 52.1994 1.80046 51.7969 1.80004 51.3V2.7C1.80056 2.20314 2.20314 1.80046 2.7 1.80004H51.3C51.7969 1.80056 52.1995 2.20314 52.2 2.7V51.3Z" fill="#BD66FF"/>
<path d="M48.6001 3.59993H5.40013C4.40651 3.60109 3.60126 4.40624 3.6001 5.39997V48.6C3.60126 49.5936 4.40641 50.3988 5.40013 50.4H48.6001C49.5938 50.3988 50.399 49.5936 50.4002 48.6V5.39997C50.399 4.40634 49.5938 3.60109 48.6001 3.59993ZM5.40013 20.7C5.39961 20.4573 5.49948 20.2253 5.67614 20.0589C5.84015 19.8911 6.06554 19.7976 6.3002 19.8C6.79707 19.8006 7.19975 20.2031 7.20017 20.7V22.5C7.20017 22.9971 6.79728 23.4 6.3002 23.4C5.80313 23.4 5.40024 22.997 5.40024 22.5V20.7H5.40013ZM5.40013 41.3999C5.39961 41.1572 5.49948 40.9252 5.67614 40.7588C5.84015 40.591 6.06554 40.4975 6.3002 40.5C6.79707 40.5005 7.19975 40.9032 7.20017 41.3999V43.2C7.20017 43.697 6.79728 44.0999 6.3002 44.0999C5.80313 44.0999 5.40024 43.697 5.40024 43.2V41.3999H5.40013ZM48.6001 48.6L5.40013 48.6012V45.7341C6.329 46.0818 7.37461 45.874 8.10013 45.1978C9.11749 46.1341 10.6827 46.1341 11.7001 45.1978C12.7969 46.1983 14.4972 46.1204 15.4978 45.0236C15.9524 44.5254 16.203 43.8744 16.2 43.2001H19.8C19.8 44.6912 21.0088 45.9001 22.5 45.9001C23.9911 45.9001 25.2 44.6913 25.2 43.2001H27.0001C27.0001 44.6912 28.209 45.9001 29.7001 45.9001C31.1913 45.9001 32.4001 44.6913 32.4001 43.2001H34.2002C34.2002 44.6912 35.4091 45.9001 36.9002 45.9001C38.3913 45.9001 39.6002 44.6913 39.6002 43.2001H41.4002C41.4002 44.6912 42.6091 45.9001 44.1002 45.9001C45.5913 45.9001 46.8002 44.6913 46.8002 43.2001H48.6001V48.6ZM9.0001 43.2V41.3999C8.99957 41.1572 9.09945 40.9252 9.27611 40.7588C9.44011 40.591 9.6655 40.4975 9.90017 40.5C10.397 40.5005 10.7997 40.9032 10.8001 41.3999V43.2C10.8001 43.697 10.3972 44.0999 9.90017 44.0999C9.40309 44.0999 9.0001 43.697 9.0001 43.2ZM12.6002 43.2V41.3999C12.5996 41.1572 12.6995 40.9252 12.8762 40.7588C13.0402 40.591 13.2656 40.4975 13.5002 40.5C13.9971 40.5005 14.3998 40.9032 14.4002 41.3999V43.2C14.4002 43.697 13.9973 44.0999 13.5002 44.0999C13.0032 44.0999 12.6002 43.697 12.6002 43.2ZM21.6001 43.2V41.3999C21.5996 41.1572 21.6995 40.9252 21.8761 40.7588C22.0402 40.591 22.2655 40.4975 22.5002 40.5C22.9971 40.5005 23.3997 40.9032 23.4002 41.3999V43.2C23.4002 43.697 22.9972 44.0999 22.5002 44.0999C22.0031 44.0999 21.6001 43.697 21.6001 43.2ZM28.8002 43.2V41.3999C28.7996 41.1572 28.8995 40.9252 29.0762 40.7588C29.2402 40.591 29.4656 40.4975 29.7002 40.5C30.1971 40.5005 30.5998 40.9032 30.6002 41.3999V43.2C30.6002 43.697 30.1973 44.0999 29.7002 44.0999C29.2032 44.0999 28.8002 43.697 28.8002 43.2ZM36.0001 43.2V41.3999C35.9996 41.1572 36.0995 40.9252 36.2761 40.7588C36.4401 40.591 36.6655 40.4975 36.9002 40.5C37.397 40.5005 37.7997 40.9032 37.8001 41.3999V43.2C37.8001 43.697 37.3972 44.0999 36.9002 44.0999C36.4031 44.0999 36.0001 43.697 36.0001 43.2ZM43.2001 43.2V41.3999C43.1996 41.1572 43.2995 40.9252 43.4762 40.7588C43.6402 40.591 43.8655 40.4975 44.1002 40.5C44.5971 40.5005 44.9997 40.9032 45.0002 41.3999V43.2C45.0002 43.697 44.5973 44.0999 44.1002 44.0999C43.6031 44.0999 43.2001 43.697 43.2001 43.2ZM48.6001 41.3999H46.8001C46.7985 39.9094 45.5906 38.7015 44.1001 38.6999C42.612 38.7073 41.4075 39.9119 41.4001 41.3999H39.6001C39.5985 39.9094 38.3905 38.7015 36.9001 38.6999C35.412 38.7073 34.2074 39.9119 34.2001 41.3999H32.4001C32.3986 39.9094 31.1906 38.7015 29.7001 38.6999C28.2121 38.7073 27.0075 39.9119 27.0001 41.3999H25.2001C25.1985 39.9094 23.9906 38.7015 22.5001 38.6999C21.012 38.7073 19.8075 39.9119 19.8001 41.3999H16.2001C16.1986 39.9094 14.9906 38.7015 13.5001 38.6999C12.8331 38.698 12.1904 38.9496 11.7019 39.4036C11.2099 38.9528 10.5674 38.7019 9.90006 38.6999C9.23308 38.698 8.59035 38.9496 8.10182 39.4036C7.37535 38.7282 6.33058 38.5191 5.40003 38.8628V32.4H7.20006V33.2999C7.20006 34.791 8.40884 35.9999 9.90006 35.9999C11.3912 35.9999 12.6001 34.791 12.6001 33.2999H14.4001C14.4001 34.791 15.609 35.9999 17.1001 35.9999C18.5912 35.9999 19.8001 34.791 19.8001 33.2999H21.6001C21.6001 34.791 22.809 35.9999 24.3001 35.9999C25.7913 35.9999 27.0001 34.791 27.0001 33.2999H28.8002C28.8002 34.791 30.0089 35.9999 31.5002 35.9999C32.9914 35.9999 34.2002 34.791 34.2002 33.2999H37.8001C37.7936 34.7846 38.9919 35.9934 40.4765 35.9999C41.151 36.0029 41.8018 35.7522 42.3001 35.2977C43.3174 36.2341 44.8827 36.2341 45.9 35.2977C46.6255 35.974 47.6712 36.1818 48.6 35.8341V41.3999H48.6001ZM9.0001 33.2999V31.4999C9.00063 31.003 9.4032 30.6004 9.90006 30.5999C10.1427 30.5993 10.375 30.699 10.5416 30.8754C10.7089 31.0399 10.8021 31.2653 10.8 31.4999V33.2999C10.8 33.797 10.3971 34.1999 9.90006 34.1999C9.40309 34.2 9.0001 33.797 9.0001 33.2999ZM16.2001 33.2999V31.4999C16.2007 31.003 16.6032 30.6004 17.1001 30.5999C17.3428 30.5993 17.575 30.699 17.7417 30.8754C17.9089 31.0399 18.0022 31.2653 18.0001 31.4999V33.2999C18.0001 33.797 17.5972 34.1999 17.1001 34.1999C16.603 34.1999 16.2001 33.797 16.2001 33.2999ZM23.4002 33.2999V31.4999C23.4007 31.003 23.8033 30.6004 24.3001 30.5999C24.5428 30.5993 24.7751 30.699 24.9417 30.8754C25.109 31.0399 25.2022 31.2653 25.2001 31.4999V33.2999C25.2001 33.797 24.7972 34.1999 24.3001 34.1999C23.8031 34.1999 23.4002 33.797 23.4002 33.2999ZM30.6001 33.2999V31.4999C30.6006 31.003 31.0032 30.6004 31.5001 30.5999C31.7427 30.5993 31.975 30.699 32.1416 30.8754C32.3089 31.0399 32.4021 31.2653 32.4 31.4999V33.2999C32.4 33.797 31.9971 34.1999 31.5001 34.1999C31.003 34.1999 30.6001 33.797 30.6001 33.2999ZM39.6002 33.2999V31.4999C39.6007 31.003 40.0033 30.6004 40.5001 30.5999C40.7429 30.5993 40.9751 30.699 41.1417 30.8754C41.309 31.0399 41.4022 31.2653 41.4001 31.4999V33.2999C41.4001 33.797 40.9972 34.1999 40.5001 34.1999C40.0031 34.1999 39.6002 33.797 39.6002 33.2999ZM43.2001 33.2999V31.4999C43.2007 31.003 43.6032 30.6004 44.1001 30.5999C44.3428 30.5993 44.575 30.699 44.7417 30.8754C44.9089 31.0399 45.0022 31.2653 45.0001 31.4999V33.2999C45.0001 33.797 44.5972 34.1999 44.1001 34.1999C43.603 34.1999 43.2001 33.797 43.2001 33.2999ZM48.6001 33.2999C48.6001 33.797 48.1971 34.1999 47.7002 34.1999C47.2031 34.1999 46.8002 33.797 46.8002 33.2999V31.4999C46.8007 31.003 47.2034 30.6004 47.7002 30.5999C47.943 30.5993 48.1751 30.699 48.3417 30.8754C48.509 31.0399 48.6022 31.2653 48.6001 31.4999V33.2999ZM48.6001 28.9639C48.3117 28.8581 48.0073 28.8027 47.7002 28.8C47.0324 28.8021 46.3896 29.0533 45.8974 29.5045C45.4085 29.0514 44.7667 28.7998 44.1001 28.8C43.4324 28.8021 42.7895 29.0533 42.2973 29.5045C41.8085 29.0514 41.1666 28.7998 40.5 28.8C39.0095 28.8016 37.8016 30.0095 37.8 31.5H34.2001C34.1935 30.0115 32.9885 28.8065 31.5001 28.8C30.0096 28.8016 28.8016 30.0095 28.8001 31.5H27.0001C26.9936 30.0115 25.7886 28.8065 24.3001 28.8C22.8097 28.8016 21.6017 30.0095 21.6001 31.5H19.8001C19.7936 30.0115 18.5886 28.8065 17.1001 28.8C15.6096 28.8016 14.4017 30.0095 14.4001 31.5H12.6001C12.5935 30.0115 11.3885 28.8065 9.90006 28.8C8.75963 28.8035 7.74481 29.5244 7.36596 30.6H5.40013V25.034C6.329 25.3818 7.37461 25.174 8.10013 24.4977C9.11749 25.4341 10.6827 25.4341 11.7001 24.4977C12.7969 25.4983 14.4972 25.4204 15.4978 24.3236C15.9524 23.8254 16.203 23.1744 16.2 22.5H19.8C19.8 23.9912 21.0088 25.2 22.5 25.2C23.9911 25.2 25.2 23.9913 25.2 22.5H27.0001C27.0001 23.9912 28.209 25.2 29.7001 25.2C31.1913 25.2 32.4001 23.9913 32.4001 22.5H34.2002C34.2002 23.9912 35.4091 25.2 36.9002 25.2C38.3913 25.2 39.6002 23.9913 39.6002 22.5H41.4002C41.4002 23.9912 42.6091 25.2 44.1002 25.2C45.5913 25.2 46.8002 23.9913 46.8002 22.5H48.6001V28.9639ZM9.0001 22.4999V20.6999C8.99957 20.4572 9.09945 20.2252 9.27611 20.0588C9.44011 19.8909 9.6655 19.7975 9.90017 19.7999C10.397 19.8005 10.7997 20.203 10.8001 20.6999V22.4999C10.8001 22.997 10.3972 23.3999 9.90017 23.3999C9.40309 23.4 9.0001 22.997 9.0001 22.4999ZM12.6002 22.4999V20.6999C12.5996 20.4572 12.6995 20.2252 12.8762 20.0588C13.0402 19.8909 13.2656 19.7975 13.5002 19.7999C13.9971 19.8005 14.3998 20.203 14.4002 20.6999V22.4999C14.4002 22.997 13.9973 23.3999 13.5002 23.3999C13.0032 23.3999 12.6002 22.997 12.6002 22.4999ZM21.6001 22.4999V20.6999C21.5996 20.4572 21.6995 20.2252 21.8761 20.0588C22.0402 19.8909 22.2655 19.7975 22.5002 19.7999C22.9971 19.8005 23.3997 20.203 23.4002 20.6999V22.4999C23.4002 22.997 22.9972 23.3999 22.5002 23.3999C22.0031 23.4 21.6001 22.997 21.6001 22.4999ZM28.8002 22.4999V20.6999C28.7996 20.4575 28.8991 20.2257 29.0752 20.0592C29.2397 19.8914 29.4653 19.7977 29.7001 19.7999C30.197 19.8005 30.5997 20.203 30.6001 20.6999V22.4999C30.6001 22.997 30.1972 23.3999 29.7001 23.3999C29.2031 23.3999 28.8002 22.997 28.8002 22.4999ZM36.0001 22.4999V20.6999C35.9996 20.4575 36.099 20.2257 36.2752 20.0592C36.4396 19.8914 36.6652 19.7977 36.9001 19.7999C37.3969 19.8005 37.7996 20.203 37.8 20.6999V22.4999C37.8 22.997 37.3971 23.3999 36.9001 23.3999C36.403 23.3999 36.0001 22.997 36.0001 22.4999ZM43.2001 22.4999V20.6999C43.1996 20.4575 43.2991 20.2257 43.4752 20.0592C43.6396 19.8914 43.8652 19.7977 44.1001 19.7999C44.597 19.8005 44.9996 20.203 45.0001 20.6999V22.4999C45.0001 22.997 44.5972 23.3999 44.1001 23.3999C43.603 23.3999 43.2001 22.997 43.2001 22.4999ZM48.6001 20.7H46.8001C46.7985 19.2095 45.5906 18.0016 44.1001 18C42.612 18.0074 41.4075 19.2119 41.4001 20.7H39.6001C39.5985 19.2095 38.3905 18.0016 36.9001 18C35.412 18.0074 34.2074 19.2119 34.2001 20.7H32.4001C32.3986 19.2095 31.1906 18.0016 29.7001 18C28.2121 18.0074 27.0075 19.2119 27.0001 20.7H25.2001C25.1985 19.2095 23.9906 18.0016 22.5001 18C21.012 18.0074 19.8075 19.2119 19.8001 20.7H16.2001C16.1986 19.2095 14.9906 18.0016 13.5001 18C12.8331 17.9981 12.1904 18.2496 11.7019 18.7037C11.2099 18.2529 10.5674 18.002 9.90006 18C9.23308 17.9981 8.59035 18.2496 8.10182 18.7037C7.37535 18.0283 6.33058 17.8191 5.40003 18.1628V12.5999H7.20006C7.20006 14.091 8.40884 15.2999 9.90006 15.2999C11.3912 15.2999 12.6001 14.0911 12.6001 12.5999H14.4001C14.4001 14.091 15.609 15.2999 17.1001 15.2999C18.5912 15.2999 19.8001 14.0911 19.8001 12.5999H21.6001C21.6001 14.091 22.809 15.2999 24.3001 15.2999C25.7913 15.2999 27.0001 14.0911 27.0001 12.5999H28.8002C28.8002 14.091 30.0089 15.2999 31.5002 15.2999C32.9914 15.2999 34.2002 14.0911 34.2002 12.5999H37.8001C37.7936 14.0846 38.9919 15.2934 40.4765 15.2999C41.151 15.3028 41.8018 15.0521 42.3001 14.5977C43.3174 15.534 44.8827 15.534 45.9 14.5977C46.6255 15.274 47.6712 15.4817 48.6 15.1341V20.7H48.6001ZM9.0001 12.6V10.8C9.00063 10.3031 9.4032 9.90042 9.90006 9.9C10.1427 9.89937 10.375 9.99903 10.5416 10.1755C10.7089 10.34 10.8021 10.5654 10.8 10.8V12.6C10.8 13.0971 10.3971 13.5 9.90006 13.5C9.40309 13.5 9.0001 13.0971 9.0001 12.6ZM16.2001 12.6V10.8C16.2007 10.3031 16.6032 9.90042 17.1001 9.9C17.3428 9.89937 17.575 9.99903 17.7417 10.1755C17.9089 10.34 18.0022 10.5654 18.0001 10.8V12.6C18.0001 13.0971 17.5972 13.5 17.1001 13.5C16.603 13.5 16.2001 13.0971 16.2001 12.6ZM23.4002 12.6V10.8C23.4007 10.3031 23.8033 9.90042 24.3001 9.9C24.5428 9.89937 24.7751 9.99903 24.9417 10.1755C25.109 10.34 25.2022 10.5654 25.2001 10.8V12.6C25.2001 13.0971 24.7972 13.5 24.3001 13.5C23.8031 13.5 23.4002 13.0971 23.4002 12.6ZM30.6001 12.6V10.8C30.6006 10.3031 31.0032 9.90042 31.5001 9.9C31.7427 9.89937 31.975 9.99903 32.1416 10.1755C32.3089 10.34 32.4021 10.5654 32.4 10.8V12.6C32.4 13.0971 31.9971 13.5 31.5001 13.5C31.003 13.5 30.6001 13.0971 30.6001 12.6ZM39.6002 12.6V10.8C39.6007 10.3031 40.0033 9.90042 40.5001 9.9C40.7429 9.89937 40.9751 9.99903 41.1417 10.1755C41.309 10.34 41.4022 10.5654 41.4001 10.8V12.6C41.4001 13.0971 40.9972 13.5 40.5001 13.5C40.0031 13.5 39.6002 13.0971 39.6002 12.6ZM43.2001 12.6V10.8C43.2007 10.3031 43.6032 9.90042 44.1001 9.9C44.3428 9.89937 44.575 9.99903 44.7417 10.1755C44.9089 10.34 45.0022 10.5654 45.0001 10.8V12.6C45.0001 13.0971 44.5972 13.5 44.1001 13.5C43.603 13.5 43.2001 13.0971 43.2001 12.6ZM48.6001 12.6C48.6001 13.0971 48.1971 13.5 47.7002 13.5C47.2031 13.5 46.8002 13.0971 46.8002 12.6V10.8C46.8007 10.3031 47.2034 9.90042 47.7002 9.9C47.943 9.89937 48.1751 9.99903 48.3417 10.1755C48.509 10.34 48.6022 10.5654 48.6001 10.8V12.6ZM48.6001 8.26386C47.6695 7.91856 46.6237 8.1277 45.8974 8.8045C45.4085 8.3514 44.7667 8.09975 44.1001 8.09997C43.4324 8.10207 42.7895 8.3533 42.2973 8.8045C41.8085 8.3514 41.1666 8.09975 40.5 8.09997C39.0095 8.10155 37.8016 9.30948 37.8 10.8H34.2001C34.1935 9.31148 32.9885 8.1065 31.5001 8.09997C30.0096 8.10155 28.8016 9.30948 28.8001 10.8H27.0001C26.9936 9.31148 25.7886 8.1065 24.3001 8.09997C22.8097 8.10155 21.6017 9.30948 21.6001 10.8H19.8001C19.7936 9.31148 18.5886 8.1065 17.1001 8.09997C15.6096 8.10155 14.4017 9.30948 14.4001 10.8H12.6001C12.5935 9.31148 11.3885 8.1065 9.90006 8.09997C8.40958 8.10155 7.20164 9.30948 7.20006 10.8H5.40013V5.39997H48.6001V8.26386Z" fill="#BD66FF"/>
</g>
<defs>
<clipPath id="clip0_2_339">
<rect width="54" height="54" fill="white"/>
</clipPath>
</defs>
</svg>
