<svg width="145" height="145" viewBox="0 0 145 145" fill="none" xmlns="http://www.w3.org/2000/svg">
<g filter="url(#filter0_d_2_265)">
<path d="M72.5431 134.013C108.701 134.013 138.013 104.701 138.013 68.5432C138.013 32.3851 108.701 3.07324 72.5431 3.07324C36.385 3.07324 7.07315 32.3851 7.07315 68.5432C7.07315 104.701 36.385 134.013 72.5431 134.013Z" fill="#E4F6FF"/>
<path d="M96.6275 45.3885C94.7971 43.537 91.829 43.5373 89.9987 45.3885L72.0358 63.5554L60.0019 51.3849C58.1716 49.5335 55.2035 49.5335 53.3732 51.3849C51.5426 53.2363 51.5426 56.2378 53.3732 58.0889L68.7214 73.6115C69.6366 74.5371 70.8362 75 72.0358 75C72.3357 75 72.6356 74.9711 72.931 74.9131C73.8174 74.7397 74.6639 74.3056 75.3502 73.6115L96.6275 52.0925C98.4578 50.2414 98.4578 47.2396 96.6275 45.3885Z" fill="#B97AB7"/>
<path d="M72.5002 76C76.6423 76 80.0002 72.6421 80.0002 68.5C80.0002 64.3579 76.6423 61 72.5002 61C68.3581 61 65.0002 64.3579 65.0002 68.5C65.0002 72.6421 68.3581 76 72.5002 76Z" fill="#F1D333"/>
<path d="M72.543 25.2829C76.3234 25.2829 79.388 22.2183 79.388 18.4379C79.388 14.6575 76.3234 11.5929 72.543 11.5929C68.7626 11.5929 65.698 14.6575 65.698 18.4379C65.698 22.2183 68.7626 25.2829 72.543 25.2829Z" fill="#454545"/>
<path d="M72.5426 125.493C76.323 125.493 79.3876 122.429 79.3876 118.648C79.3876 114.868 76.323 111.803 72.5426 111.803C68.7622 111.803 65.6976 114.868 65.6976 118.648C65.6976 122.429 68.7622 125.493 72.5426 125.493Z" fill="#454545"/>
<path d="M122.649 75.3881C126.429 75.3881 129.494 72.3235 129.494 68.5431C129.494 64.7627 126.429 61.6981 122.649 61.6981C118.868 61.6981 115.804 64.7627 115.804 68.5431C115.804 72.3235 118.868 75.3881 122.649 75.3881Z" fill="#454545"/>
<path d="M22.4379 75.3881C26.2183 75.3881 29.2829 72.3235 29.2829 68.5431C29.2829 64.7627 26.2183 61.6981 22.4379 61.6981C18.6575 61.6981 15.5929 64.7627 15.5929 68.5431C15.5929 72.3235 18.6575 75.3881 22.4379 75.3881Z" fill="#454545"/>
<path d="M47.5035 28.3507C49.2378 28.3507 50.6438 26.9448 50.6438 25.2104C50.6438 23.476 49.2378 22.0701 47.5035 22.0701C45.7691 22.0701 44.3631 23.476 44.3631 25.2104C44.3631 26.9448 45.7691 28.3507 47.5035 28.3507Z" fill="#454545"/>
<path d="M29.1515 46.6311C30.8859 46.6311 32.2918 45.2252 32.2918 43.4908C32.2918 41.7564 30.8859 40.3505 29.1515 40.3505C27.4172 40.3505 26.0112 41.7564 26.0112 43.4908C26.0112 45.2252 27.4172 46.6311 29.1515 46.6311Z" fill="#454545"/>
<path d="M29.1515 96.7348C30.8859 96.7348 32.2918 95.3289 32.2918 93.5945C32.2918 91.8601 30.8859 90.4542 29.1515 90.4542C27.4172 90.4542 26.0112 91.8601 26.0112 93.5945C26.0112 95.3289 27.4172 96.7348 29.1515 96.7348Z" fill="#454545"/>
<path d="M47.5035 115.075C49.2378 115.075 50.6438 113.669 50.6438 111.934C50.6438 110.2 49.2378 108.794 47.5035 108.794C45.7691 108.794 44.3631 110.2 44.3631 111.934C44.3631 113.669 45.7691 115.075 47.5035 115.075Z" fill="#454545"/>
<path d="M97.5946 115.075C99.329 115.075 100.735 113.669 100.735 111.934C100.735 110.2 99.329 108.794 97.5946 108.794C95.8603 108.794 94.4543 110.2 94.4543 111.934C94.4543 113.669 95.8603 115.075 97.5946 115.075Z" fill="#454545"/>
<path d="M115.934 96.7348C117.669 96.7348 119.074 95.3289 119.074 93.5945C119.074 91.8601 117.669 90.4542 115.934 90.4542C114.2 90.4542 112.794 91.8601 112.794 93.5945C112.794 95.3289 114.2 96.7348 115.934 96.7348Z" fill="#454545"/>
<path d="M97.5946 28.3507C99.329 28.3507 100.735 26.9448 100.735 25.2104C100.735 23.476 99.329 22.0701 97.5946 22.0701C95.8603 22.0701 94.4543 23.476 94.4543 25.2104C94.4543 26.9448 95.8603 28.3507 97.5946 28.3507Z" fill="#454545"/>
<path d="M115.934 46.6311C117.669 46.6311 119.074 45.2252 119.074 43.4908C119.074 41.7564 117.669 40.3505 115.934 40.3505C114.2 40.3505 112.794 41.7564 112.794 43.4908C112.794 45.2252 114.2 46.6311 115.934 46.6311Z" fill="#454545"/>
<path d="M72.5431 137C34.7957 137 4.08615 106.29 4.08615 68.5431C4.08615 30.7957 34.7957 0.0861816 72.5431 0.0861816C110.29 0.0861816 141 30.7957 141 68.5431C141 106.29 110.29 137 72.5431 137ZM72.5431 6.06019C38.0898 6.06019 10.0602 34.0898 10.0602 68.5431C10.0602 102.996 38.0898 131.026 72.5431 131.026C106.996 131.026 135.026 102.996 135.026 68.5431C135.026 34.0898 106.996 6.06019 72.5431 6.06019Z" fill="#BD66FF"/>
</g>
<defs>
<filter id="filter0_d_2_265" x="0.0861511" y="0.0861816" width="144.914" height="144.914" filterUnits="userSpaceOnUse" color-interpolation-filters="sRGB">
<feFlood flood-opacity="0" result="BackgroundImageFix"/>
<feColorMatrix in="SourceAlpha" type="matrix" values="0 0 0 0 0 0 0 0 0 0 0 0 0 0 0 0 0 0 127 0" result="hardAlpha"/>
<feOffset dy="4"/>
<feGaussianBlur stdDeviation="2"/>
<feColorMatrix type="matrix" values="0 0 0 0 0 0 0 0 0 0 0 0 0 0 0 0 0 0 0.25 0"/>
<feBlend mode="normal" in2="BackgroundImageFix" result="effect1_dropShadow_2_265"/>
<feBlend mode="normal" in="SourceGraphic" in2="effect1_dropShadow_2_265" result="shape"/>
</filter>
</defs>
</svg>
