<svg width="174" height="16" viewBox="0 0 174 16" fill="none" xmlns="http://www.w3.org/2000/svg">
<rect y="8" width="67" height="1" rx="0.5" fill="#DB3050"/>
<rect x="107" y="8" width="67" height="1" rx="0.5" fill="#DB3050"/>
<g clip-path="url(#clip0_244_3)">
<path d="M94.8372 5.83151C94.2782 4.1111 92.4237 3.16629 90.7034 3.72516C90.4761 3.79901 90.2461 3.90113 90.0187 4.02766C90.0688 3.77238 90.0948 3.52197 90.0948 3.28304C90.0948 1.45657 88.8327 0.00238037 87.0329 0.00238037C85.2304 0.00238037 83.9052 1.45979 83.9052 3.28304C83.9052 3.52194 83.9312 3.77235 83.9813 4.02766C83.7539 3.90116 83.5239 3.79901 83.2966 3.72516C81.5764 3.16619 79.7218 4.1111 79.1628 5.83151C78.5958 7.57644 79.5605 9.51966 81.2691 10.0749C81.4964 10.1487 81.7425 10.2013 82.0008 10.2326C81.8102 10.4097 81.642 10.597 81.5016 10.7903C80.4383 12.2538 80.7639 14.3095 82.2273 15.3727C83.6901 16.4355 85.59 16.1152 86.6567 14.6469C86.7972 14.4536 86.9232 14.2358 87.0328 13.9998C87.1424 14.2358 87.2685 14.4536 87.409 14.6469C88.4772 16.1172 90.313 16.4333 91.7726 15.3727C93.2361 14.3094 93.5617 12.2538 92.4984 10.7903C92.358 10.597 92.1897 10.4097 91.9992 10.2326C92.2574 10.2013 92.5037 10.1487 92.7309 10.0749C94.4396 9.51969 95.4042 7.57647 94.8372 5.83151ZM87.0329 0.939724C88.2639 0.939724 89.1575 1.92522 89.1575 3.28304C89.1575 3.89416 88.9183 4.64763 88.5178 5.29857C88.4693 5.37735 88.4469 5.46513 88.4483 5.55166L87.9603 6.39629C87.8144 6.33313 87.6547 6.28416 87.4953 6.25169V4.32991C87.4953 4.0711 87.2917 3.86126 87.0329 3.86126C86.7741 3.86126 86.5642 4.0711 86.5642 4.32991V6.25172C86.4011 6.28497 86.2443 6.33566 86.0953 6.40094L85.5504 5.50857C85.5449 5.43626 85.5227 5.36426 85.4822 5.29857C85.0817 4.64763 84.8425 3.89416 84.8425 3.28304C84.8425 1.94713 85.7842 0.939724 87.0329 0.939724ZM81.5588 9.18344C80.3544 8.7921 79.6513 7.36113 80.0542 6.12116C80.4535 4.89229 81.778 4.21738 83.007 4.6166C83.5115 4.78054 84.0623 5.14929 84.523 5.6246L85.3278 6.94285C85.1999 7.07869 85.088 7.22969 84.9951 7.39297L83.1662 6.79872C82.9198 6.71869 82.6556 6.85347 82.5756 7.0996C82.4956 7.34579 82.6303 7.61016 82.8765 7.69016L84.7048 8.28422C84.6836 8.47235 84.685 8.64116 84.7059 8.8206L83.5353 9.229C82.8337 9.37629 82.1041 9.36063 81.5588 9.18344ZM86.5642 12.1038C86.5036 12.8611 86.2553 13.6048 85.8984 14.096C85.1358 15.1457 83.8213 15.3722 82.7783 14.6144C81.733 13.8549 81.5004 12.3866 82.2599 11.3412C82.8804 10.4871 83.9583 10.099 84.04 10.0457L84.9998 9.71085C85.0862 9.86135 85.1884 10.0017 85.3049 10.1288L84.1744 11.6848C84.0223 11.8942 84.0687 12.1873 84.2781 12.3394C84.4874 12.4915 84.7805 12.4452 84.9327 12.2358L86.0629 10.6802C86.2214 10.7526 86.3891 10.8084 86.5641 10.844V12.1038H86.5642ZM87.0329 9.95388C86.2576 9.95388 85.6269 9.32316 85.6269 8.54788C85.6269 7.7726 86.2576 7.14188 87.0329 7.14188C87.8081 7.14188 88.4389 7.7726 88.4389 8.54788C88.4389 9.32316 87.8081 9.95388 87.0329 9.95388ZM91.2217 14.6144C90.1446 15.397 88.9051 15.1114 88.1673 14.096C87.8104 13.6048 87.5559 12.8611 87.4953 12.1039V10.8441C87.6703 10.8084 87.8442 10.7527 88.0028 10.6802L89.1329 12.2358C89.2851 12.4452 89.5782 12.4916 89.7875 12.3395C89.9969 12.1873 90.0434 11.8943 89.8912 11.6848L88.7608 10.1289C88.8762 10.0028 88.9777 9.86379 89.0637 9.71469L89.9373 10.0294C90.0449 10.1093 91.1105 10.4746 91.74 11.3412C92.4996 12.3866 92.267 13.8549 91.2217 14.6144ZM90.5004 9.23594L89.3593 8.82482C89.3811 8.64044 89.3819 8.4705 89.3609 8.28419L91.1892 7.69013C91.4354 7.61013 91.5701 7.34576 91.4901 7.09957C91.4101 6.85338 91.1457 6.71866 90.8995 6.79869L89.0706 7.39294C88.9761 7.22685 88.8619 7.07344 88.7311 6.93579L89.5052 5.59616C89.96 5.13469 90.4986 4.77722 90.993 4.6166C92.2218 4.21738 93.5464 4.89226 93.9458 6.1211C94.3486 7.3611 93.6456 8.79207 92.4412 9.18341H92.4413C91.9051 9.35763 91.1909 9.37532 90.5004 9.23594Z" fill="#DB3050"/>
</g>
<defs>
<clipPath id="clip0_244_3">
<rect width="16" height="16" fill="white" transform="translate(79)"/>
</clipPath>
</defs>
</svg>
